<mxfile host="Electron" modified="2024-03-18T03:30:18.311Z" agent="Mozilla/5.0 (Macintosh; Intel Mac OS X 10_15_7) AppleWebKit/537.36 (KHTML, like Gecko) draw.io/21.8.2 Chrome/114.0.5735.289 Electron/25.8.1 Safari/537.36" etag="ZiuMS-YRiQx2GrUu3Fj0" version="21.8.2" type="device">
  <diagram name="Page-1" id="SpYMa07zSHw1RpT01I9M">
    <mxGraphModel dx="2014" dy="982" grid="0" gridSize="10" guides="1" tooltips="1" connect="1" arrows="1" fold="1" page="1" pageScale="1" pageWidth="850" pageHeight="1100" math="0" shadow="1">
      <root>
        <mxCell id="0" />
        <mxCell id="1" parent="0" />
        <mxCell id="arrLQwUj6pvpC0ov4RRB-5" style="rounded=0;orthogonalLoop=1;jettySize=auto;html=1;exitX=1;exitY=0.5;exitDx=0;exitDy=0;entryX=0.5;entryY=0;entryDx=0;entryDy=0;edgeStyle=orthogonalEdgeStyle;labelBackgroundColor=none;strokeColor=#006658;fontColor=default;curved=1;" edge="1" parent="1" source="arrLQwUj6pvpC0ov4RRB-1" target="arrLQwUj6pvpC0ov4RRB-119">
          <mxGeometry relative="1" as="geometry">
            <Array as="points">
              <mxPoint x="286" y="500" />
              <mxPoint x="286" y="337" />
              <mxPoint x="491" y="337" />
            </Array>
          </mxGeometry>
        </mxCell>
        <mxCell id="arrLQwUj6pvpC0ov4RRB-9" value="&lt;b&gt;write N bash files&lt;/b&gt;" style="edgeLabel;html=1;align=center;verticalAlign=middle;resizable=0;points=[];labelBackgroundColor=none;fontColor=#5C5C5C;" vertex="1" connectable="0" parent="arrLQwUj6pvpC0ov4RRB-5">
          <mxGeometry x="-0.0635" y="1" relative="1" as="geometry">
            <mxPoint x="45" y="1" as="offset" />
          </mxGeometry>
        </mxCell>
        <mxCell id="arrLQwUj6pvpC0ov4RRB-120" style="edgeStyle=orthogonalEdgeStyle;shape=connector;rounded=0;orthogonalLoop=1;jettySize=auto;html=1;exitX=1;exitY=0.5;exitDx=0;exitDy=0;entryX=0.5;entryY=1;entryDx=0;entryDy=0;labelBackgroundColor=default;strokeColor=#006658;align=center;verticalAlign=middle;fontFamily=Helvetica;fontSize=11;fontColor=#5C5C5C;endArrow=classic;fillColor=#21C0A5;curved=1;" edge="1" parent="1" source="arrLQwUj6pvpC0ov4RRB-1" target="arrLQwUj6pvpC0ov4RRB-119">
          <mxGeometry relative="1" as="geometry">
            <Array as="points">
              <mxPoint x="291" y="500" />
              <mxPoint x="291" y="707" />
              <mxPoint x="491" y="707" />
            </Array>
          </mxGeometry>
        </mxCell>
        <mxCell id="arrLQwUj6pvpC0ov4RRB-121" value="&lt;b&gt;sbatch&lt;/b&gt;" style="edgeLabel;html=1;align=center;verticalAlign=middle;resizable=0;points=[];fontSize=11;fontFamily=Helvetica;fontColor=#5C5C5C;" vertex="1" connectable="0" parent="arrLQwUj6pvpC0ov4RRB-120">
          <mxGeometry x="-0.0865" y="19" relative="1" as="geometry">
            <mxPoint x="1" as="offset" />
          </mxGeometry>
        </mxCell>
        <mxCell id="arrLQwUj6pvpC0ov4RRB-1" value="masterJob.R" style="rounded=1;whiteSpace=wrap;html=1;labelBackgroundColor=none;fillColor=#21C0A5;strokeColor=#006658;fontColor=#5C5C5C;" vertex="1" parent="1">
          <mxGeometry x="100" y="470" width="120" height="60" as="geometry" />
        </mxCell>
        <mxCell id="arrLQwUj6pvpC0ov4RRB-2" value="" style="endArrow=classic;html=1;rounded=0;entryX=0.5;entryY=0;entryDx=0;entryDy=0;labelBackgroundColor=none;strokeColor=#006658;fontColor=default;" edge="1" parent="1" target="arrLQwUj6pvpC0ov4RRB-1">
          <mxGeometry width="50" height="50" relative="1" as="geometry">
            <mxPoint x="160" y="380" as="sourcePoint" />
            <mxPoint x="210" y="360" as="targetPoint" />
          </mxGeometry>
        </mxCell>
        <mxCell id="arrLQwUj6pvpC0ov4RRB-3" value="Rscript" style="edgeLabel;html=1;align=center;verticalAlign=middle;resizable=0;points=[];labelBackgroundColor=none;fontColor=#5C5C5C;" vertex="1" connectable="0" parent="arrLQwUj6pvpC0ov4RRB-2">
          <mxGeometry x="-0.0444" y="-1" relative="1" as="geometry">
            <mxPoint as="offset" />
          </mxGeometry>
        </mxCell>
        <mxCell id="arrLQwUj6pvpC0ov4RRB-110" style="edgeStyle=none;shape=connector;rounded=0;orthogonalLoop=1;jettySize=auto;html=1;exitX=1;exitY=0.5;exitDx=0;exitDy=0;entryX=0;entryY=0.5;entryDx=0;entryDy=0;labelBackgroundColor=default;strokeColor=#006658;align=center;verticalAlign=middle;fontFamily=Helvetica;fontSize=11;fontColor=#5C5C5C;endArrow=classic;fillColor=#21C0A5;" edge="1" parent="1" source="arrLQwUj6pvpC0ov4RRB-8" target="arrLQwUj6pvpC0ov4RRB-13">
          <mxGeometry relative="1" as="geometry" />
        </mxCell>
        <mxCell id="arrLQwUj6pvpC0ov4RRB-116" value="&lt;b&gt;Rscript&lt;/b&gt;" style="edgeLabel;html=1;align=center;verticalAlign=middle;resizable=0;points=[];fontSize=11;fontFamily=Helvetica;fontColor=#5C5C5C;" vertex="1" connectable="0" parent="arrLQwUj6pvpC0ov4RRB-110">
          <mxGeometry x="-0.3796" y="2" relative="1" as="geometry">
            <mxPoint as="offset" />
          </mxGeometry>
        </mxCell>
        <mxCell id="arrLQwUj6pvpC0ov4RRB-111" style="edgeStyle=none;shape=connector;rounded=0;orthogonalLoop=1;jettySize=auto;html=1;exitX=1;exitY=0.5;exitDx=0;exitDy=0;entryX=0;entryY=0.5;entryDx=0;entryDy=0;labelBackgroundColor=default;strokeColor=#006658;align=center;verticalAlign=middle;fontFamily=Helvetica;fontSize=11;fontColor=#5C5C5C;endArrow=classic;fillColor=#21C0A5;" edge="1" parent="1" source="arrLQwUj6pvpC0ov4RRB-8" target="arrLQwUj6pvpC0ov4RRB-14">
          <mxGeometry relative="1" as="geometry" />
        </mxCell>
        <mxCell id="arrLQwUj6pvpC0ov4RRB-112" style="edgeStyle=none;shape=connector;rounded=0;orthogonalLoop=1;jettySize=auto;html=1;exitX=1;exitY=0.5;exitDx=0;exitDy=0;entryX=0;entryY=0.5;entryDx=0;entryDy=0;labelBackgroundColor=default;strokeColor=#006658;align=center;verticalAlign=middle;fontFamily=Helvetica;fontSize=11;fontColor=#5C5C5C;endArrow=classic;fillColor=#21C0A5;" edge="1" parent="1" source="arrLQwUj6pvpC0ov4RRB-8" target="arrLQwUj6pvpC0ov4RRB-18">
          <mxGeometry relative="1" as="geometry" />
        </mxCell>
        <mxCell id="arrLQwUj6pvpC0ov4RRB-113" style="edgeStyle=none;shape=connector;rounded=0;orthogonalLoop=1;jettySize=auto;html=1;exitX=1;exitY=0.5;exitDx=0;exitDy=0;entryX=0;entryY=0.5;entryDx=0;entryDy=0;labelBackgroundColor=default;strokeColor=#006658;align=center;verticalAlign=middle;fontFamily=Helvetica;fontSize=11;fontColor=#5C5C5C;endArrow=classic;fillColor=#21C0A5;" edge="1" parent="1" source="arrLQwUj6pvpC0ov4RRB-8" target="arrLQwUj6pvpC0ov4RRB-19">
          <mxGeometry relative="1" as="geometry" />
        </mxCell>
        <mxCell id="arrLQwUj6pvpC0ov4RRB-114" style="edgeStyle=none;shape=connector;rounded=0;orthogonalLoop=1;jettySize=auto;html=1;exitX=1;exitY=0.5;exitDx=0;exitDy=0;entryX=0;entryY=0.5;entryDx=0;entryDy=0;labelBackgroundColor=default;strokeColor=#006658;align=center;verticalAlign=middle;fontFamily=Helvetica;fontSize=11;fontColor=#5C5C5C;endArrow=classic;fillColor=#21C0A5;" edge="1" parent="1" source="arrLQwUj6pvpC0ov4RRB-8" target="arrLQwUj6pvpC0ov4RRB-20">
          <mxGeometry relative="1" as="geometry" />
        </mxCell>
        <mxCell id="arrLQwUj6pvpC0ov4RRB-115" style="edgeStyle=none;shape=connector;rounded=0;orthogonalLoop=1;jettySize=auto;html=1;exitX=1;exitY=0.5;exitDx=0;exitDy=0;entryX=0;entryY=0.5;entryDx=0;entryDy=0;labelBackgroundColor=default;strokeColor=#006658;align=center;verticalAlign=middle;fontFamily=Helvetica;fontSize=11;fontColor=#5C5C5C;endArrow=classic;fillColor=#21C0A5;" edge="1" parent="1" source="arrLQwUj6pvpC0ov4RRB-8" target="arrLQwUj6pvpC0ov4RRB-21">
          <mxGeometry relative="1" as="geometry" />
        </mxCell>
        <mxCell id="arrLQwUj6pvpC0ov4RRB-34" style="rounded=0;orthogonalLoop=1;jettySize=auto;html=1;exitX=0;exitY=0.5;exitDx=0;exitDy=0;entryX=1;entryY=0.25;entryDx=0;entryDy=0;labelBackgroundColor=none;strokeColor=#006658;fontColor=default;" edge="1" parent="1" source="arrLQwUj6pvpC0ov4RRB-32" target="arrLQwUj6pvpC0ov4RRB-13">
          <mxGeometry relative="1" as="geometry" />
        </mxCell>
        <mxCell id="arrLQwUj6pvpC0ov4RRB-46" style="rounded=0;orthogonalLoop=1;jettySize=auto;html=1;exitX=0;exitY=0.5;exitDx=0;exitDy=0;entryX=1.002;entryY=0.125;entryDx=0;entryDy=0;entryPerimeter=0;labelBackgroundColor=none;strokeColor=#006658;fontColor=default;" edge="1" parent="1" source="arrLQwUj6pvpC0ov4RRB-32" target="arrLQwUj6pvpC0ov4RRB-14">
          <mxGeometry relative="1" as="geometry" />
        </mxCell>
        <mxCell id="arrLQwUj6pvpC0ov4RRB-51" style="edgeStyle=none;shape=connector;rounded=0;orthogonalLoop=1;jettySize=auto;html=1;exitX=0;exitY=0.5;exitDx=0;exitDy=0;entryX=1;entryY=0;entryDx=0;entryDy=0;labelBackgroundColor=none;strokeColor=#006658;align=center;verticalAlign=middle;fontFamily=Helvetica;fontSize=11;fontColor=default;endArrow=classic;" edge="1" parent="1" source="arrLQwUj6pvpC0ov4RRB-32" target="arrLQwUj6pvpC0ov4RRB-18">
          <mxGeometry relative="1" as="geometry" />
        </mxCell>
        <mxCell id="arrLQwUj6pvpC0ov4RRB-56" style="edgeStyle=none;shape=connector;rounded=0;orthogonalLoop=1;jettySize=auto;html=1;exitX=0;exitY=0.5;exitDx=0;exitDy=0;entryX=1;entryY=0.25;entryDx=0;entryDy=0;labelBackgroundColor=none;strokeColor=#006658;align=center;verticalAlign=middle;fontFamily=Helvetica;fontSize=11;fontColor=default;endArrow=classic;" edge="1" parent="1" source="arrLQwUj6pvpC0ov4RRB-32" target="arrLQwUj6pvpC0ov4RRB-19">
          <mxGeometry relative="1" as="geometry" />
        </mxCell>
        <mxCell id="arrLQwUj6pvpC0ov4RRB-61" style="edgeStyle=none;shape=connector;rounded=0;orthogonalLoop=1;jettySize=auto;html=1;exitX=0;exitY=0.5;exitDx=0;exitDy=0;entryX=1;entryY=0;entryDx=0;entryDy=0;labelBackgroundColor=none;strokeColor=#006658;align=center;verticalAlign=middle;fontFamily=Helvetica;fontSize=11;fontColor=default;endArrow=classic;" edge="1" parent="1" source="arrLQwUj6pvpC0ov4RRB-32" target="arrLQwUj6pvpC0ov4RRB-20">
          <mxGeometry relative="1" as="geometry" />
        </mxCell>
        <mxCell id="arrLQwUj6pvpC0ov4RRB-66" style="edgeStyle=none;shape=connector;rounded=0;orthogonalLoop=1;jettySize=auto;html=1;exitX=0;exitY=0.5;exitDx=0;exitDy=0;entryX=1;entryY=0.25;entryDx=0;entryDy=0;labelBackgroundColor=none;strokeColor=#006658;align=center;verticalAlign=middle;fontFamily=Helvetica;fontSize=11;fontColor=default;endArrow=classic;" edge="1" parent="1" source="arrLQwUj6pvpC0ov4RRB-32" target="arrLQwUj6pvpC0ov4RRB-21">
          <mxGeometry relative="1" as="geometry" />
        </mxCell>
        <mxCell id="arrLQwUj6pvpC0ov4RRB-39" style="rounded=0;orthogonalLoop=1;jettySize=auto;html=1;exitX=0;exitY=0.5;exitDx=0;exitDy=0;entryX=1;entryY=0.5;entryDx=0;entryDy=0;labelBackgroundColor=none;strokeColor=#006658;fontColor=default;" edge="1" parent="1" source="arrLQwUj6pvpC0ov4RRB-33" target="arrLQwUj6pvpC0ov4RRB-13">
          <mxGeometry relative="1" as="geometry" />
        </mxCell>
        <mxCell id="arrLQwUj6pvpC0ov4RRB-47" style="edgeStyle=none;shape=connector;rounded=0;orthogonalLoop=1;jettySize=auto;html=1;exitX=0;exitY=0.5;exitDx=0;exitDy=0;entryX=1;entryY=0.25;entryDx=0;entryDy=0;labelBackgroundColor=none;strokeColor=#006658;align=center;verticalAlign=middle;fontFamily=Helvetica;fontSize=11;fontColor=default;endArrow=classic;" edge="1" parent="1" source="arrLQwUj6pvpC0ov4RRB-33" target="arrLQwUj6pvpC0ov4RRB-14">
          <mxGeometry relative="1" as="geometry" />
        </mxCell>
        <mxCell id="arrLQwUj6pvpC0ov4RRB-52" style="edgeStyle=none;shape=connector;rounded=0;orthogonalLoop=1;jettySize=auto;html=1;exitX=0;exitY=0.5;exitDx=0;exitDy=0;entryX=1;entryY=0.25;entryDx=0;entryDy=0;labelBackgroundColor=none;strokeColor=#006658;align=center;verticalAlign=middle;fontFamily=Helvetica;fontSize=11;fontColor=default;endArrow=classic;" edge="1" parent="1" source="arrLQwUj6pvpC0ov4RRB-33" target="arrLQwUj6pvpC0ov4RRB-18">
          <mxGeometry relative="1" as="geometry" />
        </mxCell>
        <mxCell id="arrLQwUj6pvpC0ov4RRB-57" style="edgeStyle=none;shape=connector;rounded=0;orthogonalLoop=1;jettySize=auto;html=1;exitX=0;exitY=0.5;exitDx=0;exitDy=0;entryX=1;entryY=0.5;entryDx=0;entryDy=0;labelBackgroundColor=none;strokeColor=#006658;align=center;verticalAlign=middle;fontFamily=Helvetica;fontSize=11;fontColor=default;endArrow=classic;" edge="1" parent="1" source="arrLQwUj6pvpC0ov4RRB-33" target="arrLQwUj6pvpC0ov4RRB-19">
          <mxGeometry relative="1" as="geometry" />
        </mxCell>
        <mxCell id="arrLQwUj6pvpC0ov4RRB-62" style="edgeStyle=none;shape=connector;rounded=0;orthogonalLoop=1;jettySize=auto;html=1;exitX=0;exitY=0.5;exitDx=0;exitDy=0;entryX=1;entryY=0.25;entryDx=0;entryDy=0;labelBackgroundColor=none;strokeColor=#006658;align=center;verticalAlign=middle;fontFamily=Helvetica;fontSize=11;fontColor=default;endArrow=classic;" edge="1" parent="1" source="arrLQwUj6pvpC0ov4RRB-33" target="arrLQwUj6pvpC0ov4RRB-20">
          <mxGeometry relative="1" as="geometry" />
        </mxCell>
        <mxCell id="arrLQwUj6pvpC0ov4RRB-67" style="edgeStyle=none;shape=connector;rounded=0;orthogonalLoop=1;jettySize=auto;html=1;exitX=0;exitY=0.5;exitDx=0;exitDy=0;entryX=1;entryY=0.5;entryDx=0;entryDy=0;labelBackgroundColor=none;strokeColor=#006658;align=center;verticalAlign=middle;fontFamily=Helvetica;fontSize=11;fontColor=default;endArrow=classic;" edge="1" parent="1" source="arrLQwUj6pvpC0ov4RRB-33" target="arrLQwUj6pvpC0ov4RRB-21">
          <mxGeometry relative="1" as="geometry" />
        </mxCell>
        <mxCell id="arrLQwUj6pvpC0ov4RRB-40" style="rounded=0;orthogonalLoop=1;jettySize=auto;html=1;exitX=0;exitY=0.5;exitDx=0;exitDy=0;entryX=1.006;entryY=0.642;entryDx=0;entryDy=0;entryPerimeter=0;labelBackgroundColor=none;strokeColor=#006658;fontColor=default;" edge="1" parent="1" source="arrLQwUj6pvpC0ov4RRB-35" target="arrLQwUj6pvpC0ov4RRB-13">
          <mxGeometry relative="1" as="geometry" />
        </mxCell>
        <mxCell id="arrLQwUj6pvpC0ov4RRB-48" style="edgeStyle=none;shape=connector;rounded=0;orthogonalLoop=1;jettySize=auto;html=1;exitX=0;exitY=0.5;exitDx=0;exitDy=0;entryX=1;entryY=0.5;entryDx=0;entryDy=0;labelBackgroundColor=none;strokeColor=#006658;align=center;verticalAlign=middle;fontFamily=Helvetica;fontSize=11;fontColor=default;endArrow=classic;" edge="1" parent="1" source="arrLQwUj6pvpC0ov4RRB-35" target="arrLQwUj6pvpC0ov4RRB-14">
          <mxGeometry relative="1" as="geometry" />
        </mxCell>
        <mxCell id="arrLQwUj6pvpC0ov4RRB-53" style="edgeStyle=none;shape=connector;rounded=0;orthogonalLoop=1;jettySize=auto;html=1;exitX=0;exitY=0.5;exitDx=0;exitDy=0;entryX=1;entryY=0.5;entryDx=0;entryDy=0;labelBackgroundColor=none;strokeColor=#006658;align=center;verticalAlign=middle;fontFamily=Helvetica;fontSize=11;fontColor=default;endArrow=classic;" edge="1" parent="1" source="arrLQwUj6pvpC0ov4RRB-35" target="arrLQwUj6pvpC0ov4RRB-18">
          <mxGeometry relative="1" as="geometry" />
        </mxCell>
        <mxCell id="arrLQwUj6pvpC0ov4RRB-58" style="edgeStyle=none;shape=connector;rounded=0;orthogonalLoop=1;jettySize=auto;html=1;exitX=0;exitY=0.5;exitDx=0;exitDy=0;entryX=1;entryY=0.75;entryDx=0;entryDy=0;labelBackgroundColor=none;strokeColor=#006658;align=center;verticalAlign=middle;fontFamily=Helvetica;fontSize=11;fontColor=default;endArrow=classic;" edge="1" parent="1" source="arrLQwUj6pvpC0ov4RRB-35" target="arrLQwUj6pvpC0ov4RRB-19">
          <mxGeometry relative="1" as="geometry" />
        </mxCell>
        <mxCell id="arrLQwUj6pvpC0ov4RRB-63" style="edgeStyle=none;shape=connector;rounded=0;orthogonalLoop=1;jettySize=auto;html=1;exitX=0;exitY=0.5;exitDx=0;exitDy=0;entryX=1;entryY=0.5;entryDx=0;entryDy=0;labelBackgroundColor=none;strokeColor=#006658;align=center;verticalAlign=middle;fontFamily=Helvetica;fontSize=11;fontColor=default;endArrow=classic;" edge="1" parent="1" source="arrLQwUj6pvpC0ov4RRB-35" target="arrLQwUj6pvpC0ov4RRB-20">
          <mxGeometry relative="1" as="geometry" />
        </mxCell>
        <mxCell id="arrLQwUj6pvpC0ov4RRB-68" style="edgeStyle=none;shape=connector;rounded=0;orthogonalLoop=1;jettySize=auto;html=1;exitX=0;exitY=0.5;exitDx=0;exitDy=0;entryX=1;entryY=0.75;entryDx=0;entryDy=0;labelBackgroundColor=none;strokeColor=#006658;align=center;verticalAlign=middle;fontFamily=Helvetica;fontSize=11;fontColor=default;endArrow=classic;" edge="1" parent="1" source="arrLQwUj6pvpC0ov4RRB-35" target="arrLQwUj6pvpC0ov4RRB-21">
          <mxGeometry relative="1" as="geometry" />
        </mxCell>
        <mxCell id="arrLQwUj6pvpC0ov4RRB-41" style="rounded=0;orthogonalLoop=1;jettySize=auto;html=1;exitX=0;exitY=0.5;exitDx=0;exitDy=0;entryX=1;entryY=0.75;entryDx=0;entryDy=0;labelBackgroundColor=none;strokeColor=#006658;fontColor=default;" edge="1" parent="1" source="arrLQwUj6pvpC0ov4RRB-36" target="arrLQwUj6pvpC0ov4RRB-13">
          <mxGeometry relative="1" as="geometry" />
        </mxCell>
        <mxCell id="arrLQwUj6pvpC0ov4RRB-49" style="edgeStyle=none;shape=connector;rounded=0;orthogonalLoop=1;jettySize=auto;html=1;exitX=0;exitY=0.5;exitDx=0;exitDy=0;entryX=1;entryY=0.75;entryDx=0;entryDy=0;labelBackgroundColor=none;strokeColor=#006658;align=center;verticalAlign=middle;fontFamily=Helvetica;fontSize=11;fontColor=default;endArrow=classic;" edge="1" parent="1" source="arrLQwUj6pvpC0ov4RRB-36" target="arrLQwUj6pvpC0ov4RRB-14">
          <mxGeometry relative="1" as="geometry" />
        </mxCell>
        <mxCell id="arrLQwUj6pvpC0ov4RRB-54" style="edgeStyle=none;shape=connector;rounded=0;orthogonalLoop=1;jettySize=auto;html=1;exitX=0;exitY=0.5;exitDx=0;exitDy=0;entryX=1;entryY=0.75;entryDx=0;entryDy=0;labelBackgroundColor=none;strokeColor=#006658;align=center;verticalAlign=middle;fontFamily=Helvetica;fontSize=11;fontColor=default;endArrow=classic;" edge="1" parent="1" source="arrLQwUj6pvpC0ov4RRB-36" target="arrLQwUj6pvpC0ov4RRB-18">
          <mxGeometry relative="1" as="geometry" />
        </mxCell>
        <mxCell id="arrLQwUj6pvpC0ov4RRB-55" style="edgeStyle=none;shape=connector;rounded=0;orthogonalLoop=1;jettySize=auto;html=1;exitX=0;exitY=0.5;exitDx=0;exitDy=0;entryX=1;entryY=1;entryDx=0;entryDy=0;labelBackgroundColor=none;strokeColor=#006658;align=center;verticalAlign=middle;fontFamily=Helvetica;fontSize=11;fontColor=default;endArrow=classic;" edge="1" parent="1" source="arrLQwUj6pvpC0ov4RRB-36" target="arrLQwUj6pvpC0ov4RRB-18">
          <mxGeometry relative="1" as="geometry" />
        </mxCell>
        <mxCell id="arrLQwUj6pvpC0ov4RRB-59" style="edgeStyle=none;shape=connector;rounded=0;orthogonalLoop=1;jettySize=auto;html=1;exitX=0;exitY=0.5;exitDx=0;exitDy=0;entryX=1;entryY=1;entryDx=0;entryDy=0;labelBackgroundColor=none;strokeColor=#006658;align=center;verticalAlign=middle;fontFamily=Helvetica;fontSize=11;fontColor=default;endArrow=classic;" edge="1" parent="1" source="arrLQwUj6pvpC0ov4RRB-36" target="arrLQwUj6pvpC0ov4RRB-19">
          <mxGeometry relative="1" as="geometry" />
        </mxCell>
        <mxCell id="arrLQwUj6pvpC0ov4RRB-64" style="edgeStyle=none;shape=connector;rounded=0;orthogonalLoop=1;jettySize=auto;html=1;exitX=0;exitY=0.5;exitDx=0;exitDy=0;entryX=1;entryY=0.75;entryDx=0;entryDy=0;labelBackgroundColor=none;strokeColor=#006658;align=center;verticalAlign=middle;fontFamily=Helvetica;fontSize=11;fontColor=default;endArrow=classic;" edge="1" parent="1" source="arrLQwUj6pvpC0ov4RRB-36" target="arrLQwUj6pvpC0ov4RRB-20">
          <mxGeometry relative="1" as="geometry" />
        </mxCell>
        <mxCell id="arrLQwUj6pvpC0ov4RRB-69" style="edgeStyle=none;shape=connector;rounded=0;orthogonalLoop=1;jettySize=auto;html=1;exitX=0;exitY=0.5;exitDx=0;exitDy=0;entryX=1;entryY=1;entryDx=0;entryDy=0;labelBackgroundColor=none;strokeColor=#006658;align=center;verticalAlign=middle;fontFamily=Helvetica;fontSize=11;fontColor=default;endArrow=classic;" edge="1" parent="1" source="arrLQwUj6pvpC0ov4RRB-36" target="arrLQwUj6pvpC0ov4RRB-21">
          <mxGeometry relative="1" as="geometry" />
        </mxCell>
        <mxCell id="arrLQwUj6pvpC0ov4RRB-42" style="rounded=0;orthogonalLoop=1;jettySize=auto;html=1;exitX=0;exitY=0.5;exitDx=0;exitDy=0;entryX=1;entryY=1;entryDx=0;entryDy=0;labelBackgroundColor=none;strokeColor=#006658;fontColor=default;" edge="1" parent="1" source="arrLQwUj6pvpC0ov4RRB-37" target="arrLQwUj6pvpC0ov4RRB-13">
          <mxGeometry relative="1" as="geometry" />
        </mxCell>
        <mxCell id="arrLQwUj6pvpC0ov4RRB-50" style="edgeStyle=none;shape=connector;rounded=0;orthogonalLoop=1;jettySize=auto;html=1;exitX=0;exitY=0.5;exitDx=0;exitDy=0;entryX=1;entryY=1;entryDx=0;entryDy=0;labelBackgroundColor=none;strokeColor=#006658;align=center;verticalAlign=middle;fontFamily=Helvetica;fontSize=11;fontColor=default;endArrow=classic;" edge="1" parent="1" source="arrLQwUj6pvpC0ov4RRB-37" target="arrLQwUj6pvpC0ov4RRB-14">
          <mxGeometry relative="1" as="geometry" />
        </mxCell>
        <mxCell id="arrLQwUj6pvpC0ov4RRB-60" style="edgeStyle=none;shape=connector;rounded=0;orthogonalLoop=1;jettySize=auto;html=1;exitX=0;exitY=0.5;exitDx=0;exitDy=0;entryX=1;entryY=1;entryDx=0;entryDy=0;labelBackgroundColor=none;strokeColor=#006658;align=center;verticalAlign=middle;fontFamily=Helvetica;fontSize=11;fontColor=default;endArrow=classic;" edge="1" parent="1" source="arrLQwUj6pvpC0ov4RRB-37" target="arrLQwUj6pvpC0ov4RRB-19">
          <mxGeometry relative="1" as="geometry" />
        </mxCell>
        <mxCell id="arrLQwUj6pvpC0ov4RRB-65" style="edgeStyle=none;shape=connector;rounded=0;orthogonalLoop=1;jettySize=auto;html=1;exitX=0;exitY=0.5;exitDx=0;exitDy=0;entryX=1;entryY=1;entryDx=0;entryDy=0;labelBackgroundColor=none;strokeColor=#006658;align=center;verticalAlign=middle;fontFamily=Helvetica;fontSize=11;fontColor=default;endArrow=classic;" edge="1" parent="1" source="arrLQwUj6pvpC0ov4RRB-37" target="arrLQwUj6pvpC0ov4RRB-20">
          <mxGeometry relative="1" as="geometry" />
        </mxCell>
        <mxCell id="arrLQwUj6pvpC0ov4RRB-70" style="edgeStyle=none;shape=connector;rounded=0;orthogonalLoop=1;jettySize=auto;html=1;exitX=0;exitY=0.5;exitDx=0;exitDy=0;entryX=1;entryY=0.75;entryDx=0;entryDy=0;labelBackgroundColor=none;strokeColor=#006658;align=center;verticalAlign=middle;fontFamily=Helvetica;fontSize=11;fontColor=default;endArrow=classic;" edge="1" parent="1" source="arrLQwUj6pvpC0ov4RRB-37" target="arrLQwUj6pvpC0ov4RRB-21">
          <mxGeometry relative="1" as="geometry" />
        </mxCell>
        <mxCell id="arrLQwUj6pvpC0ov4RRB-71" value="&lt;font style=&quot;font-size: 24px;&quot;&gt;Overall Procedure&lt;/font&gt;" style="text;html=1;strokeColor=none;fillColor=none;align=center;verticalAlign=middle;whiteSpace=wrap;rounded=0;fontSize=11;fontFamily=Helvetica;fontColor=#5C5C5C;labelBackgroundColor=none;" vertex="1" parent="1">
          <mxGeometry x="126" y="293" width="220" height="20" as="geometry" />
        </mxCell>
        <mxCell id="arrLQwUj6pvpC0ov4RRB-74" value="&lt;font style=&quot;font-size: 24px;&quot;&gt;One Iteration: Start from Data 1&lt;/font&gt;" style="text;html=1;strokeColor=none;fillColor=none;align=center;verticalAlign=middle;whiteSpace=wrap;rounded=0;fontSize=11;fontFamily=Helvetica;fontColor=#5C5C5C;labelBackgroundColor=none;" vertex="1" parent="1">
          <mxGeometry x="80" y="797" width="403" height="20" as="geometry" />
        </mxCell>
        <mxCell id="arrLQwUj6pvpC0ov4RRB-77" style="edgeStyle=orthogonalEdgeStyle;rounded=0;orthogonalLoop=1;jettySize=auto;html=1;exitX=1;exitY=0.5;exitDx=0;exitDy=0;strokeColor=#006658;fontColor=#5C5C5C;fillColor=#21C0A5;" edge="1" parent="1" source="arrLQwUj6pvpC0ov4RRB-75">
          <mxGeometry relative="1" as="geometry">
            <mxPoint x="338.5" y="943" as="targetPoint" />
          </mxGeometry>
        </mxCell>
        <mxCell id="arrLQwUj6pvpC0ov4RRB-75" value="masterJob.R" style="rounded=1;whiteSpace=wrap;html=1;labelBackgroundColor=none;fillColor=#21C0A5;strokeColor=#006658;fontColor=#5C5C5C;" vertex="1" parent="1">
          <mxGeometry x="112" y="913" width="120" height="60" as="geometry" />
        </mxCell>
        <mxCell id="arrLQwUj6pvpC0ov4RRB-80" style="rounded=0;orthogonalLoop=1;jettySize=auto;html=1;exitX=1;exitY=0.5;exitDx=0;exitDy=0;entryX=0;entryY=0.5;entryDx=0;entryDy=0;strokeColor=#006658;fontColor=#5C5C5C;fillColor=#21C0A5;" edge="1" parent="1" source="arrLQwUj6pvpC0ov4RRB-76" target="arrLQwUj6pvpC0ov4RRB-79">
          <mxGeometry relative="1" as="geometry" />
        </mxCell>
        <mxCell id="arrLQwUj6pvpC0ov4RRB-84" style="edgeStyle=none;shape=connector;rounded=0;orthogonalLoop=1;jettySize=auto;html=1;exitX=1;exitY=0.5;exitDx=0;exitDy=0;entryX=0;entryY=0.5;entryDx=0;entryDy=0;labelBackgroundColor=default;strokeColor=#006658;align=center;verticalAlign=middle;fontFamily=Helvetica;fontSize=11;fontColor=#5C5C5C;endArrow=classic;fillColor=#21C0A5;" edge="1" parent="1" source="arrLQwUj6pvpC0ov4RRB-76" target="arrLQwUj6pvpC0ov4RRB-82">
          <mxGeometry relative="1" as="geometry" />
        </mxCell>
        <mxCell id="arrLQwUj6pvpC0ov4RRB-86" style="edgeStyle=none;shape=connector;rounded=0;orthogonalLoop=1;jettySize=auto;html=1;exitX=1;exitY=0.5;exitDx=0;exitDy=0;labelBackgroundColor=default;strokeColor=#006658;align=center;verticalAlign=middle;fontFamily=Helvetica;fontSize=11;fontColor=#5C5C5C;endArrow=classic;fillColor=#21C0A5;entryX=0;entryY=0.5;entryDx=0;entryDy=0;" edge="1" parent="1" source="arrLQwUj6pvpC0ov4RRB-76" target="arrLQwUj6pvpC0ov4RRB-85">
          <mxGeometry relative="1" as="geometry">
            <mxPoint x="619.5" y="964.5" as="targetPoint" />
          </mxGeometry>
        </mxCell>
        <mxCell id="arrLQwUj6pvpC0ov4RRB-91" style="edgeStyle=none;shape=connector;rounded=0;orthogonalLoop=1;jettySize=auto;html=1;exitX=1;exitY=0.5;exitDx=0;exitDy=0;entryX=0;entryY=0.5;entryDx=0;entryDy=0;labelBackgroundColor=default;strokeColor=#006658;align=center;verticalAlign=middle;fontFamily=Helvetica;fontSize=11;fontColor=#5C5C5C;endArrow=classic;fillColor=#21C0A5;" edge="1" parent="1" source="arrLQwUj6pvpC0ov4RRB-76" target="arrLQwUj6pvpC0ov4RRB-88">
          <mxGeometry relative="1" as="geometry" />
        </mxCell>
        <mxCell id="arrLQwUj6pvpC0ov4RRB-92" style="edgeStyle=none;shape=connector;rounded=0;orthogonalLoop=1;jettySize=auto;html=1;exitX=1;exitY=0.5;exitDx=0;exitDy=0;entryX=0;entryY=0.5;entryDx=0;entryDy=0;labelBackgroundColor=default;strokeColor=#006658;align=center;verticalAlign=middle;fontFamily=Helvetica;fontSize=11;fontColor=#5C5C5C;endArrow=classic;fillColor=#21C0A5;" edge="1" parent="1" source="arrLQwUj6pvpC0ov4RRB-76" target="arrLQwUj6pvpC0ov4RRB-89">
          <mxGeometry relative="1" as="geometry" />
        </mxCell>
        <mxCell id="arrLQwUj6pvpC0ov4RRB-93" style="edgeStyle=none;shape=connector;rounded=0;orthogonalLoop=1;jettySize=auto;html=1;exitX=1;exitY=0.5;exitDx=0;exitDy=0;entryX=0;entryY=0.5;entryDx=0;entryDy=0;labelBackgroundColor=default;strokeColor=#006658;align=center;verticalAlign=middle;fontFamily=Helvetica;fontSize=11;fontColor=#5C5C5C;endArrow=classic;fillColor=#21C0A5;" edge="1" parent="1" source="arrLQwUj6pvpC0ov4RRB-76" target="arrLQwUj6pvpC0ov4RRB-90">
          <mxGeometry relative="1" as="geometry" />
        </mxCell>
        <mxCell id="arrLQwUj6pvpC0ov4RRB-76" value="AllModelRunning_Data&lt;b&gt;1&lt;/b&gt;.sh" style="rounded=1;whiteSpace=wrap;html=1;strokeColor=#006658;labelBackgroundColor=none;fillColor=#21C0A5;fontColor=#5C5C5C;" vertex="1" parent="1">
          <mxGeometry x="346" y="915" width="200" height="60" as="geometry" />
        </mxCell>
        <mxCell id="arrLQwUj6pvpC0ov4RRB-83" style="edgeStyle=none;shape=connector;rounded=0;orthogonalLoop=1;jettySize=auto;html=1;exitX=0;exitY=0.5;exitDx=0;exitDy=0;entryX=1;entryY=0.5;entryDx=0;entryDy=0;labelBackgroundColor=default;strokeColor=#006658;align=center;verticalAlign=middle;fontFamily=Helvetica;fontSize=11;fontColor=#5C5C5C;endArrow=classic;fillColor=#21C0A5;" edge="1" parent="1" source="arrLQwUj6pvpC0ov4RRB-78" target="arrLQwUj6pvpC0ov4RRB-82">
          <mxGeometry relative="1" as="geometry" />
        </mxCell>
        <mxCell id="arrLQwUj6pvpC0ov4RRB-87" style="edgeStyle=none;shape=connector;rounded=0;orthogonalLoop=1;jettySize=auto;html=1;exitX=0;exitY=0.5;exitDx=0;exitDy=0;entryX=1;entryY=0.5;entryDx=0;entryDy=0;labelBackgroundColor=default;strokeColor=#006658;align=center;verticalAlign=middle;fontFamily=Helvetica;fontSize=11;fontColor=#5C5C5C;endArrow=classic;fillColor=#21C0A5;" edge="1" parent="1" source="arrLQwUj6pvpC0ov4RRB-78" target="arrLQwUj6pvpC0ov4RRB-85">
          <mxGeometry relative="1" as="geometry" />
        </mxCell>
        <mxCell id="arrLQwUj6pvpC0ov4RRB-94" style="edgeStyle=none;shape=connector;rounded=0;orthogonalLoop=1;jettySize=auto;html=1;exitX=0;exitY=0.5;exitDx=0;exitDy=0;entryX=1;entryY=0.5;entryDx=0;entryDy=0;labelBackgroundColor=default;strokeColor=#006658;align=center;verticalAlign=middle;fontFamily=Helvetica;fontSize=11;fontColor=#5C5C5C;endArrow=classic;fillColor=#21C0A5;" edge="1" parent="1" source="arrLQwUj6pvpC0ov4RRB-78" target="arrLQwUj6pvpC0ov4RRB-88">
          <mxGeometry relative="1" as="geometry" />
        </mxCell>
        <mxCell id="arrLQwUj6pvpC0ov4RRB-95" style="edgeStyle=none;shape=connector;rounded=0;orthogonalLoop=1;jettySize=auto;html=1;exitX=0;exitY=0.5;exitDx=0;exitDy=0;entryX=1;entryY=0.5;entryDx=0;entryDy=0;labelBackgroundColor=default;strokeColor=#006658;align=center;verticalAlign=middle;fontFamily=Helvetica;fontSize=11;fontColor=#5C5C5C;endArrow=classic;fillColor=#21C0A5;" edge="1" parent="1" source="arrLQwUj6pvpC0ov4RRB-78" target="arrLQwUj6pvpC0ov4RRB-89">
          <mxGeometry relative="1" as="geometry" />
        </mxCell>
        <mxCell id="arrLQwUj6pvpC0ov4RRB-96" style="edgeStyle=none;shape=connector;rounded=0;orthogonalLoop=1;jettySize=auto;html=1;exitX=0;exitY=0.5;exitDx=0;exitDy=0;entryX=1;entryY=0.5;entryDx=0;entryDy=0;labelBackgroundColor=default;strokeColor=#006658;align=center;verticalAlign=middle;fontFamily=Helvetica;fontSize=11;fontColor=#5C5C5C;endArrow=classic;fillColor=#21C0A5;" edge="1" parent="1" source="arrLQwUj6pvpC0ov4RRB-78" target="arrLQwUj6pvpC0ov4RRB-90">
          <mxGeometry relative="1" as="geometry" />
        </mxCell>
        <mxCell id="arrLQwUj6pvpC0ov4RRB-78" value="Data_1" style="whiteSpace=wrap;html=1;aspect=fixed;labelBackgroundColor=none;fillColor=#21C0A5;strokeColor=#006658;fontColor=#5C5C5C;" vertex="1" parent="1">
          <mxGeometry x="1032" y="913" width="80" height="80" as="geometry" />
        </mxCell>
        <mxCell id="arrLQwUj6pvpC0ov4RRB-79" value="Analysis_ModelA_AlignedSV_asym1000.R&lt;br&gt;[Arg1: &lt;font color=&quot;#ff213f&quot;&gt;1&lt;/font&gt;] [Arg2: root_directory]" style="rounded=1;whiteSpace=wrap;html=1;labelBackgroundColor=none;fillColor=#21C0A5;strokeColor=#006658;fontColor=#5C5C5C;" vertex="1" parent="1">
          <mxGeometry x="621" y="792" width="260" height="60" as="geometry" />
        </mxCell>
        <mxCell id="arrLQwUj6pvpC0ov4RRB-81" style="rounded=0;orthogonalLoop=1;jettySize=auto;html=1;exitX=0;exitY=0.5;exitDx=0;exitDy=0;entryX=1;entryY=0.5;entryDx=0;entryDy=0;strokeColor=#006658;fontColor=#5C5C5C;fillColor=#21C0A5;" edge="1" parent="1" source="arrLQwUj6pvpC0ov4RRB-78" target="arrLQwUj6pvpC0ov4RRB-79">
          <mxGeometry relative="1" as="geometry" />
        </mxCell>
        <mxCell id="arrLQwUj6pvpC0ov4RRB-82" value="Analysis_ModelA_AlignedSV_sym1000.R&lt;br&gt;[Arg1: &lt;font color=&quot;#ff213f&quot;&gt;&lt;b&gt;1&lt;/b&gt;&lt;/font&gt;] [Arg2: root_directory]" style="rounded=1;whiteSpace=wrap;html=1;labelBackgroundColor=none;fillColor=#21C0A5;strokeColor=#006658;fontColor=#5C5C5C;" vertex="1" parent="1">
          <mxGeometry x="621" y="864" width="260" height="60" as="geometry" />
        </mxCell>
        <mxCell id="arrLQwUj6pvpC0ov4RRB-85" value="Analysis_ModelA_Diffuse_asym500.R&lt;br&gt;[Arg1:&amp;nbsp;&lt;b style=&quot;border-color: var(--border-color); color: rgb(255, 33, 63);&quot;&gt;1&lt;/b&gt;] [Arg2: root_directory]" style="rounded=1;whiteSpace=wrap;html=1;labelBackgroundColor=none;fillColor=#21C0A5;strokeColor=#006658;fontColor=#5C5C5C;" vertex="1" parent="1">
          <mxGeometry x="621" y="936" width="260" height="60" as="geometry" />
        </mxCell>
        <mxCell id="arrLQwUj6pvpC0ov4RRB-88" value="Analysis_ModelA_Diffuse_sym500.R&lt;br&gt;[Arg1:&amp;nbsp;&lt;b style=&quot;border-color: var(--border-color); color: rgb(255, 33, 63);&quot;&gt;1&lt;/b&gt;] [Arg2: root_directory]" style="rounded=1;whiteSpace=wrap;html=1;labelBackgroundColor=none;fillColor=#21C0A5;strokeColor=#006658;fontColor=#5C5C5C;" vertex="1" parent="1">
          <mxGeometry x="621" y="1008" width="260" height="60" as="geometry" />
        </mxCell>
        <mxCell id="arrLQwUj6pvpC0ov4RRB-89" value="Analysis_ModelA_DivergentSV_asym100.R&lt;br&gt;[Arg1:&amp;nbsp;&lt;b style=&quot;border-color: var(--border-color); color: rgb(255, 33, 63);&quot;&gt;1&lt;/b&gt;] [Arg2: root_directory]" style="rounded=1;whiteSpace=wrap;html=1;labelBackgroundColor=none;fillColor=#21C0A5;strokeColor=#006658;fontColor=#5C5C5C;" vertex="1" parent="1">
          <mxGeometry x="621" y="1076" width="260" height="60" as="geometry" />
        </mxCell>
        <mxCell id="arrLQwUj6pvpC0ov4RRB-90" value="Analysis_ModelA_DivergentSV_sym100.R&lt;br&gt;[Arg1:&amp;nbsp;&lt;b style=&quot;border-color: var(--border-color); color: rgb(255, 33, 63);&quot;&gt;1&lt;/b&gt;] [Arg2: root_directory]" style="rounded=1;whiteSpace=wrap;html=1;labelBackgroundColor=none;fillColor=#21C0A5;strokeColor=#006658;fontColor=#5C5C5C;" vertex="1" parent="1">
          <mxGeometry x="621" y="1153" width="260" height="60" as="geometry" />
        </mxCell>
        <mxCell id="arrLQwUj6pvpC0ov4RRB-102" value="One-rep R files" style="swimlane;whiteSpace=wrap;html=1;strokeColor=#d6b656;fontFamily=Helvetica;fontSize=11;fillColor=#fff2cc;" vertex="1" parent="1">
          <mxGeometry x="652" y="231.5" width="416" height="521.5" as="geometry" />
        </mxCell>
        <mxCell id="arrLQwUj6pvpC0ov4RRB-13" value="Analysis_ModelA_AlignedSV_asym1000.R&lt;br&gt;[Arg1: DataIndex] [Arg2: root_directory]" style="rounded=1;whiteSpace=wrap;html=1;labelBackgroundColor=none;fillColor=#21C0A5;strokeColor=#006658;fontColor=#5C5C5C;" vertex="1" parent="arrLQwUj6pvpC0ov4RRB-102">
          <mxGeometry x="72" y="45.5" width="260" height="60" as="geometry" />
        </mxCell>
        <mxCell id="arrLQwUj6pvpC0ov4RRB-14" value="Analysis_ModelA_AlignedSV_sym1000.R&lt;br&gt;[Arg1: DataIndex] [Arg2: root_directory]" style="rounded=1;whiteSpace=wrap;html=1;labelBackgroundColor=none;fillColor=#21C0A5;strokeColor=#006658;fontColor=#5C5C5C;" vertex="1" parent="arrLQwUj6pvpC0ov4RRB-102">
          <mxGeometry x="72" y="141.5" width="260" height="60" as="geometry" />
        </mxCell>
        <mxCell id="arrLQwUj6pvpC0ov4RRB-18" value="Analysis_ModelA_Diffuse_asym500.R&lt;br&gt;[Arg1: DataIndex] [Arg2: root_directory]" style="rounded=1;whiteSpace=wrap;html=1;labelBackgroundColor=none;fillColor=#21C0A5;strokeColor=#006658;fontColor=#5C5C5C;" vertex="1" parent="arrLQwUj6pvpC0ov4RRB-102">
          <mxGeometry x="72" y="218.5" width="260" height="60" as="geometry" />
        </mxCell>
        <mxCell id="arrLQwUj6pvpC0ov4RRB-19" value="Analysis_ModelA_Diffuse_sym500.R&lt;br&gt;[Arg1: DataIndex] [Arg2: root_directory]" style="rounded=1;whiteSpace=wrap;html=1;labelBackgroundColor=none;fillColor=#21C0A5;strokeColor=#006658;fontColor=#5C5C5C;" vertex="1" parent="arrLQwUj6pvpC0ov4RRB-102">
          <mxGeometry x="72" y="293.5" width="260" height="60" as="geometry" />
        </mxCell>
        <mxCell id="arrLQwUj6pvpC0ov4RRB-20" value="Analysis_ModelA_DivergentSV_asym100.R&lt;br&gt;[Arg1: DataIndex] [Arg2: root_directory]" style="rounded=1;whiteSpace=wrap;html=1;labelBackgroundColor=none;fillColor=#21C0A5;strokeColor=#006658;fontColor=#5C5C5C;" vertex="1" parent="arrLQwUj6pvpC0ov4RRB-102">
          <mxGeometry x="72" y="368.5" width="260" height="60" as="geometry" />
        </mxCell>
        <mxCell id="arrLQwUj6pvpC0ov4RRB-21" value="Analysis_ModelA_DivergentSV_sym100.R&lt;br&gt;[Arg1: DataIndex] [Arg2: root_directory]" style="rounded=1;whiteSpace=wrap;html=1;labelBackgroundColor=none;fillColor=#21C0A5;strokeColor=#006658;fontColor=#5C5C5C;" vertex="1" parent="arrLQwUj6pvpC0ov4RRB-102">
          <mxGeometry x="72" y="443.5" width="260" height="60" as="geometry" />
        </mxCell>
        <mxCell id="arrLQwUj6pvpC0ov4RRB-117" style="edgeStyle=orthogonalEdgeStyle;shape=connector;rounded=0;orthogonalLoop=1;jettySize=auto;html=1;exitX=0.5;exitY=0;exitDx=0;exitDy=0;entryX=0.5;entryY=0;entryDx=0;entryDy=0;labelBackgroundColor=default;strokeColor=#006658;align=center;verticalAlign=middle;fontFamily=Helvetica;fontSize=11;fontColor=#5C5C5C;endArrow=classic;fillColor=#21C0A5;curved=1;" edge="1" parent="1" source="arrLQwUj6pvpC0ov4RRB-103" target="arrLQwUj6pvpC0ov4RRB-102">
          <mxGeometry relative="1" as="geometry">
            <Array as="points">
              <mxPoint x="1256" y="165" />
              <mxPoint x="860" y="165" />
            </Array>
          </mxGeometry>
        </mxCell>
        <mxCell id="arrLQwUj6pvpC0ov4RRB-118" value="Read in data" style="edgeLabel;html=1;align=center;verticalAlign=middle;resizable=0;points=[];fontSize=11;fontFamily=Helvetica;fontColor=#5C5C5C;" vertex="1" connectable="0" parent="arrLQwUj6pvpC0ov4RRB-117">
          <mxGeometry x="0.1164" y="1" relative="1" as="geometry">
            <mxPoint as="offset" />
          </mxGeometry>
        </mxCell>
        <mxCell id="arrLQwUj6pvpC0ov4RRB-103" value="Data Files" style="swimlane;whiteSpace=wrap;html=1;strokeColor=#b85450;fontFamily=Helvetica;fontSize=11;fillColor=#f8cecc;" vertex="1" parent="1">
          <mxGeometry x="1101" y="231.5" width="309" height="524.5" as="geometry" />
        </mxCell>
        <mxCell id="arrLQwUj6pvpC0ov4RRB-32" value="Data_1" style="whiteSpace=wrap;html=1;aspect=fixed;labelBackgroundColor=none;fillColor=#21C0A5;strokeColor=#006658;fontColor=#5C5C5C;" vertex="1" parent="arrLQwUj6pvpC0ov4RRB-103">
          <mxGeometry x="105.5" y="47" width="80" height="80" as="geometry" />
        </mxCell>
        <mxCell id="arrLQwUj6pvpC0ov4RRB-33" value="Data_2" style="whiteSpace=wrap;html=1;aspect=fixed;labelBackgroundColor=none;fillColor=#21C0A5;strokeColor=#006658;fontColor=#5C5C5C;" vertex="1" parent="arrLQwUj6pvpC0ov4RRB-103">
          <mxGeometry x="105.5" y="137" width="80" height="80" as="geometry" />
        </mxCell>
        <mxCell id="arrLQwUj6pvpC0ov4RRB-35" value="Data_3" style="whiteSpace=wrap;html=1;aspect=fixed;labelBackgroundColor=none;fillColor=#21C0A5;strokeColor=#006658;fontColor=#5C5C5C;" vertex="1" parent="arrLQwUj6pvpC0ov4RRB-103">
          <mxGeometry x="105.5" y="228" width="80" height="80" as="geometry" />
        </mxCell>
        <mxCell id="arrLQwUj6pvpC0ov4RRB-36" value="Data_4" style="whiteSpace=wrap;html=1;aspect=fixed;labelBackgroundColor=none;fillColor=#21C0A5;strokeColor=#006658;fontColor=#5C5C5C;" vertex="1" parent="arrLQwUj6pvpC0ov4RRB-103">
          <mxGeometry x="105.5" y="315" width="80" height="80" as="geometry" />
        </mxCell>
        <mxCell id="arrLQwUj6pvpC0ov4RRB-37" value="Data_N" style="whiteSpace=wrap;html=1;aspect=fixed;labelBackgroundColor=none;fillColor=#21C0A5;strokeColor=#006658;fontColor=#5C5C5C;" vertex="1" parent="arrLQwUj6pvpC0ov4RRB-103">
          <mxGeometry x="105.5" y="413" width="80" height="80" as="geometry" />
        </mxCell>
        <mxCell id="arrLQwUj6pvpC0ov4RRB-119" value="bash file (jobfiles)" style="swimlane;whiteSpace=wrap;html=1;strokeColor=#9673a6;fontFamily=Helvetica;fontSize=11;fillColor=#e1d5e7;" vertex="1" parent="1">
          <mxGeometry x="361" y="396" width="260" height="236.25" as="geometry" />
        </mxCell>
        <mxCell id="arrLQwUj6pvpC0ov4RRB-4" value="AllModelRunning_Data[Index].sh" style="rounded=1;whiteSpace=wrap;html=1;labelBackgroundColor=none;fillColor=#21C0A5;strokeColor=#006658;fontColor=#5C5C5C;" vertex="1" parent="arrLQwUj6pvpC0ov4RRB-119">
          <mxGeometry x="4" y="52" width="200" height="60" as="geometry" />
        </mxCell>
        <mxCell id="arrLQwUj6pvpC0ov4RRB-6" value="AllModelRunning_Data[Index].sh" style="rounded=1;whiteSpace=wrap;html=1;labelBackgroundColor=none;fillColor=#21C0A5;strokeColor=#006658;fontColor=#5C5C5C;" vertex="1" parent="arrLQwUj6pvpC0ov4RRB-119">
          <mxGeometry x="14" y="67" width="200" height="60" as="geometry" />
        </mxCell>
        <mxCell id="arrLQwUj6pvpC0ov4RRB-7" value="AllModelRunning_Data[Index].sh" style="rounded=1;whiteSpace=wrap;html=1;labelBackgroundColor=none;fillColor=#21C0A5;strokeColor=#006658;fontColor=#5C5C5C;" vertex="1" parent="arrLQwUj6pvpC0ov4RRB-119">
          <mxGeometry x="35" y="88" width="200" height="60" as="geometry" />
        </mxCell>
        <mxCell id="arrLQwUj6pvpC0ov4RRB-8" value="AllModelRunning_Data[Index].sh" style="rounded=1;whiteSpace=wrap;html=1;strokeColor=#006658;labelBackgroundColor=none;fillColor=#21C0A5;fontColor=#5C5C5C;" vertex="1" parent="arrLQwUj6pvpC0ov4RRB-119">
          <mxGeometry x="52" y="110" width="200" height="60" as="geometry" />
        </mxCell>
      </root>
    </mxGraphModel>
  </diagram>
</mxfile>
